<?xml version="1.0" encoding="utf-8"?>
<!-- Generator: Adobe Illustrator 17.1.0, SVG Export Plug-In . SVG Version: 6.00 Build 0)  -->
<!DOCTYPE svg PUBLIC "-//W3C//DTD SVG 1.1//EN" "http://www.w3.org/Graphics/SVG/1.1/DTD/svg11.dtd">
<svg version="1.1" id="Layer_1" xmlns="http://www.w3.org/2000/svg" xmlns:xlink="http://www.w3.org/1999/xlink" x="0px" y="0px"
	 viewBox="0 0 52.7 52.7" enable-background="new 0 0 52.7 52.7" xml:space="preserve">
<polygon opacity="0.25" points="27.8,31.3 27.8,31.3 27.8,20.8 27.8,20.8 16.3,36.4 39.3,36.4 "/>
<g opacity="0.75">
	<linearGradient id="SVGID_1_" gradientUnits="userSpaceOnUse" x1="27.8079" y1="16.1362" x2="27.8314" y2="16.1362">
		<stop  offset="0" style="stop-color:#FFFFFF"/>
		<stop  offset="1" style="stop-color:#808080"/>
	</linearGradient>
	<polygon fill="url(#SVGID_1_)" points="27.8,16.1 27.8,16.2 27.8,16.2 27.8,16.1 	"/>
	<linearGradient id="SVGID_2_" gradientUnits="userSpaceOnUse" x1="27.8079" y1="26.303" x2="39.3855" y2="26.303">
		<stop  offset="0" style="stop-color:#FFFFFF"/>
		<stop  offset="1" style="stop-color:#808080"/>
	</linearGradient>
	<polygon fill="url(#SVGID_2_)" points="27.8,16.2 27.8,16.2 27.8,31.3 27.8,31.3 39.4,36.4 	"/>
</g>
<g>
	<polygon points="27.8,16.1 27.8,16.1 27.8,16.1 27.8,16.1 	"/>
	<polygon points="32.7,29.2 28.3,22.4 28.3,16.1 28.1,16.1 16.4,36.4 28.1,31.3 28.3,31.3 28.3,26.2 	"/>
</g>
</svg>
