<?xml version="1.0" encoding="utf-8"?>
<!-- Generator: Adobe Illustrator 17.1.0, SVG Export Plug-In . SVG Version: 6.00 Build 0)  -->
<!DOCTYPE svg PUBLIC "-//W3C//DTD SVG 1.1//EN" "http://www.w3.org/Graphics/SVG/1.1/DTD/svg11.dtd">
<svg version="1.1" id="Layer_1" xmlns="http://www.w3.org/2000/svg" xmlns:xlink="http://www.w3.org/1999/xlink" x="0px" y="0px"
	 viewBox="0 0 1600 1600" enable-background="new 0 0 1600 1600" xml:space="preserve">
<g>
	<path fill="#231F20" d="M308,458.2c0-5.9-2.2-9.5-11.9-9.5h-6.5v19.1h8.4C304.1,467.9,308,464.5,308,458.2z"/>
	<path fill="#231F20" d="M145.6,478.1h-11.7v16.3h11.5c5.6,0,8.4-3.9,8.4-8.2C153.8,481.7,151.2,478.1,145.6,478.1z"/>
	<path fill="#231F20" d="M150.8,455.4c0-3.6-2.1-6.7-7.3-6.7h-9.6v14h9.9C148.7,462.7,150.8,459.2,150.8,455.4z"/>
	<path fill="#231F20" d="M150.4,648.5c-11.8,0-21.2,9.7-21.2,22.5c0,13.4,9.5,23.5,21.2,23.5s21.2-10.1,21.2-23.5
		C171.7,658.2,162.2,648.5,150.4,648.5z"/>
	<path fill="#231F20" d="M441.4,648.7h-6.5v19.1h8.4c6.2,0,10-3.4,10-9.7C453.3,652.2,451.1,648.7,441.4,648.7z"/>
	<path fill="#231F20" d="M561.9,448.5c-11.8,0-21.2,9.7-21.2,22.5c0,13.4,9.5,23.5,21.2,23.5s21.2-10.1,21.2-23.5
		C583.2,458.2,573.7,448.5,561.9,448.5z"/>
	<path fill="#231F20" d="M235.9,348.5c-11.8,0-21.2,9.7-21.2,22.5c0,13.4,9.5,23.5,21.2,23.5s21.2-10.1,21.2-23.5
		C257.1,358.2,247.7,348.5,235.9,348.5z"/>
	<path fill="#231F20" d="M218.9,594.6c11.8,0,21.2-10.1,21.2-23.5c0-12.9-9.5-22.5-21.2-22.5s-21.2,9.7-21.2,22.5
		C197.6,584.5,207.1,594.6,218.9,594.6z"/>
	<path fill="#231F20" d="M627.9,548.5c-11.8,0-21.2,9.7-21.2,22.5c0,13.4,9.5,23.5,21.2,23.5s21.2-10.1,21.2-23.5
		C649.2,558.2,639.7,548.5,627.9,548.5z"/>
	<path fill="#231F20" d="M1067.2,394.6c11.8,0,21.2-10.1,21.2-23.5c0-12.9-9.5-22.5-21.2-22.5s-21.2,9.7-21.2,22.5
		C1045.9,384.5,1055.4,394.6,1067.2,394.6z"/>
	<path fill="#231F20" d="M745,258.2c0-5.9-2.2-9.5-11.9-9.5h-6.5v19.1h8.4C741.1,267.9,745,264.5,745,258.2z"/>
	<path fill="#231F20" d="M0,0v1600h1600V0H0z M1067.2,330.9c23.8,0,41.1,17.6,41.1,40.1c0,23.1-17.4,41.1-41.1,41.1
		s-41.1-18-41.1-41.1C1026,348.5,1043.4,330.9,1067.2,330.9z M1055.5,471.1c0,23.1-17.4,41.1-41.1,41.1s-41.1-18-41.1-41.1
		c0-22.5,17.4-40.1,41.1-40.1S1055.5,448.5,1055.5,471.1z M954.2,332.2h67v16.5h-23.9v62.2h-19.2v-62.2h-23.9V332.2z M872.4,255
		c0-14.5,12.2-24.1,27.8-24.1c16.9,0,25.3,8.9,25.3,8.9l-8.1,15.7c0,0-7.9-6.9-17.4-6.9c-4,0-8.4,1.8-8.4,6.2
		c0,9.9,35.4,8.1,35.4,33c0,13.1-10,24.4-27.7,24.4c-18.5,0-28.7-11.2-28.7-11.2l10.1-14.6c0,0,8.9,8.1,18.8,8.1
		c4,0,8.2-1.5,8.2-6.3C907.8,278.9,872.4,279.2,872.4,255z M915.3,363v16.5h-24v14.9h31.6v16.5H872v-78.7h49.3v16.5h-30V363H915.3z
		 M848.7,230.6h16.7l-9.8,28h-12.9L848.7,230.6z M845.6,463v16.5h-24v14.9h31.6v16.5h-50.8v-78.7h49.3v16.5h-30V463H845.6z
		 M830.6,412.2c-18.5,0-28.7-11.2-28.7-11.2l10.1-14.6c0,0,8.9,8.1,18.8,8.1c4,0,8.2-1.5,8.2-6.3c0-9.4-35.4-9-35.4-33.2
		c0-14.5,12.2-24.1,27.8-24.1c16.9,0,25.3,8.9,25.3,8.9l-8.1,15.7c0,0-7.9-6.9-17.4-6.9c-4,0-8.4,1.8-8.4,6.2
		c0,9.9,35.4,8.1,35.4,33C858.3,400.9,848.3,412.2,830.6,412.2z M782.9,232.2h49.3v16.5h-30V263h24v16.5h-24v14.9h31.6v16.5h-50.8
		V232.2z M680,410.9v-78.7h49.3v16.5h-30V363h24v16.5h-24v14.9h31.6v16.5H680z M716.6,430.6l-9.8,28h-12.9l5.9-28H716.6z
		 M738.6,432.2l13.9,44.8c1.5,5,3,12.7,3,12.7h0.2c0,0,1.4-7.7,3-12.7l14.1-44.8h20.6l-27.7,78.7h-20l-27.8-78.7H738.6z
		 M745.2,410.9v-78.7h19.2v62.2h32.1v16.5H745.2z M707.4,232.2h27.4c8,0,11.9,0.5,15.3,1.9c8.9,3.4,14.5,11.4,14.5,22.9
		c0,8.4-4,17.5-11.8,21.5v0.2c0,0,1.1,1.4,3,4.7l15.3,27.5h-21.4l-14-26.5h-9v26.5h-19.2V232.2z M642.1,232.2h49.3v16.5h-30V263h24
		v16.5h-24v14.9h31.6v16.5h-50.8V232.2z M635.2,341.4l-9.2,14.4c0,0-8-7.3-19.1-7.3c-16.5,0-23.2,10.6-23.2,22.2
		c0,15,10.3,23.9,22.6,23.9c9.2,0,15.9-5.7,15.9-5.7v-6.1H611v-16.4h28.2v44.4h-16.1v-2.2c0-1.6,0.1-3.3,0.1-3.3H623
		c0,0-7.6,6.8-20.7,6.8c-20.1,0-38.6-15.1-38.6-40.8c0-22.9,17.3-40.5,41.3-40.5C625.1,330.9,635.2,341.4,635.2,341.4z M603.1,471.1
		c0,23.1-17.4,41.1-41.1,41.1s-41.1-18-41.1-41.1c0-22.5,17.4-40.1,41.1-40.1S603.1,448.5,603.1,471.1z M556,232.2h19.2v31.5h28.6
		v-31.5h19.2v78.7h-19.2v-30.8h-28.6v30.8H556V232.2z M549.9,410.9h-19.4l-21.9-36.6c-3.1-5.2-6.6-13.4-6.6-13.4h-0.2
		c0,0,0.9,8.5,0.9,13.4v36.6h-19.2v-78.7H503l21.8,36.7c3.1,5.2,6.6,13.4,6.6,13.4h0.2c0,0-0.9-8.5-0.9-13.4v-36.7h19.2V410.9z
		 M478.8,232.2h67v16.5h-23.9v62.2h-19.2v-62.2h-23.9V232.2z M478.2,451.1c2.5,5.4,4.7,11.3,4.7,11.3h0.2c0,0,2.2-5.9,4.7-11.3
		l8.8-18.9h21.9l-26,46.4v32.2h-19.2v-32.2l-26-46.4h21.9L478.2,451.1z M445.2,332.2h19.2v78.7h-19.2V332.2z M376.4,232.2h19.5
		l21.8,36.7c3.1,5.2,6.6,13.4,6.6,13.4h0.2c0,0-0.9-8.5-0.9-13.4v-36.7h19.2v78.7h-19.4l-21.9-36.6c-3.1-5.2-6.6-13.4-6.6-13.4h-0.2
		c0,0,0.9,8.5,0.9,13.4v36.6h-19.2V232.2z M365.2,474.2v36.6h-19.2v-78.7h19.5l21.8,36.7c3.1,5.2,6.6,13.4,6.6,13.4h0.2
		c0,0-0.9-8.5-0.9-13.4v-36.7h19.3v78.7H393l-21.9-36.6c-3.1-5.2-6.6-13.4-6.6-13.4h-0.2C364.3,460.8,365.2,469.3,365.2,474.2z
		 M281.9,348.7v-16.5h67v16.5H325v62.2h-19.2v-62.2H281.9z M407,410.9v-30.8h-28.6v30.8h-19.2v-78.7h19.2v31.5H407v-31.5h19.2v78.7
		H407z M311.1,232.2h49.3v16.5h-30V263h24v16.5h-24v14.9H362v16.5h-50.8V232.2z M225,232.2h19.2v31.5h28.6v-31.5h19.2v78.7h-19.2
		v-30.8h-28.6v30.8H225V232.2z M173.5,487.4c0,17.2-14.3,23.4-29.9,23.4h-28.9v-78.7h28.9c15.7,0,26.7,7,26.7,20.6
		c0,6.6-3.2,13.3-9.1,16.7v0.2C170.2,472.5,173.5,480.5,173.5,487.4z M161.8,410.9l-21.9-36.6c-3.1-5.2-6.6-13.4-6.6-13.4h-0.2
		c0,0,0.9,8.5,0.9,13.4v36.6h-19.2v-78.7h19.5l21.8,36.7c3.1,5.2,6.6,13.4,6.6,13.4h0.2c0,0-0.9-8.5-0.9-13.4v-36.7h19.3v78.7H161.8
		z M218.9,530.9c23.8,0,41.1,17.6,41.1,40.1c0,23.1-17.4,41.1-41.1,41.1s-41.1-18-41.1-41.1C177.7,548.5,195.1,530.9,218.9,530.9z
		 M219.5,494.6c8.2,0,13.6-4.4,13.6-12.6v-49.7h19.2v49.7c0,17.7-13,30.2-32.8,30.2c-20,0-33-12.5-33-30.2v-49.7h19.2v49.7
		C205.9,490.2,211.3,494.6,219.5,494.6z M235.9,412.2c-23.8,0-41.1-18-41.1-41.1c0-22.5,17.4-40.1,41.1-40.1s41.1,17.6,41.1,40.1
		C277,394.2,259.7,412.2,235.9,412.2z M128,232.2l9.9,49.2c1,4.8,1,8.2,1,8.2h0.2c0,0,0.1-3.4,1.3-8.2l12.1-49.2H168l11.8,49.2
		c1.2,4.8,1.3,8.2,1.3,8.2h0.2c0,0,0-3.4,1-8.2l10.8-49.2H213l-19.9,78.7h-21.5l-9.9-39.7c-1.2-5.1-1.5-9.2-1.5-9.2H160
		c0,0-0.3,4.2-1.5,9.2l-9.9,39.7h-21.7l-19.1-78.7H128z M105.9,532.2h67v16.5H149v62.2h-19.2v-62.2h-23.9V532.2z M150.4,712.2
		c-23.8,0-41.1-18-41.1-41.1c0-22.5,17.4-40.1,41.1-40.1s41.1,17.6,41.1,40.1C191.6,694.2,174.2,712.2,150.4,712.2z M271.7,710.9
		h-19.4l-21.9-36.6c-3.1-5.2-6.6-13.4-6.6-13.4h-0.2c0,0,0.9,8.5,0.9,13.4v36.6h-19.2v-78.7h19.5l21.8,36.7
		c3.1,5.2,6.6,13.4,6.6,13.4h0.2c0,0-0.9-8.5-0.9-13.4v-36.7h19.3V710.9z M289.6,510.9h-19.2v-78.7h27.4c8,0,11.9,0.5,15.3,1.9
		c8.9,3.4,14.5,11.4,14.5,22.9c0,8.4-4,17.5-11.8,21.5v0.2c0,0,1.1,1.4,3,4.7l15.3,27.5h-21.4l-14-26.5h-9V510.9z M293.5,601
		l10.1-14.6c0,0,8.9,8.1,18.8,8.1c4,0,8.2-1.5,8.2-6.3c0-9.4-35.4-9-35.4-33.2c0-14.5,12.2-24.1,27.8-24.1c16.9,0,25.3,8.9,25.3,8.9
		l-8.1,15.7c0,0-7.9-6.9-17.4-6.9c-4,0-8.4,1.8-8.4,6.2c0,9.9,35.4,8.1,35.4,33c0,13.1-10,24.4-27.7,24.4
		C303.8,612.2,293.5,601,293.5,601z M364.6,648.7h-28.9v16.5h24v16.5h-24v29.2h-19.2v-78.7h48.2V648.7z M396.6,710.9h-19.2v-78.7
		h19.2V710.9z M414.5,610.9h-50.8v-78.7H413v16.5h-30V563h24v16.5h-24v14.9h31.6V610.9z M457.9,710.9l-14-26.5h-9v26.5h-19.2v-78.7
		H443c8,0,11.9,0.5,15.3,1.9c8.9,3.4,14.5,11.4,14.5,22.9c0,8.4-4,17.5-11.8,21.5v0.2c0,0,1.1,1.4,3,4.7l15.3,27.5H457.9z
		 M487.1,548.7h-23.9v62.2H444v-62.2h-23.9v-16.5h67V548.7z M542,710.9h-50.8v-78.7h49.3v16.5h-30V663h24v16.5h-24v14.9H542V710.9z
		 M571.6,710.9h-18v-18h18V710.9z M558.6,578.6v32.2h-19.2v-32.2l-26-46.4h21.9l8.9,18.9c2.5,5.4,4.7,11.3,4.7,11.3h0.2
		c0,0,2.2-5.9,4.7-11.3l8.8-18.9h21.9L558.6,578.6z M627.9,612.2c-23.8,0-41.1-18-41.1-41.1c0-22.5,17.4-40.1,41.1-40.1
		s41.1,17.6,41.1,40.1C669.1,594.2,651.7,612.2,627.9,612.2z M681.4,481.9c0,17.7-13,30.2-32.8,30.2c-20,0-33-12.5-33-30.2v-49.7
		h19.2v49.7c0,8.2,5.4,12.6,13.6,12.6s13.6-4.4,13.6-12.6v-49.7h19.2V481.9z M747.4,581.9c0,17.7-13,30.2-32.8,30.2
		c-20,0-33-12.5-33-30.2v-49.7h19.2v49.7c0,8.2,5.4,12.6,13.6,12.6s13.6-4.4,13.6-12.6v-49.7h19.2V581.9z M807.6,610.9l-14-26.5h-9
		v26.5h-19.2v-78.7h27.4c8,0,11.9,0.5,15.3,1.9c8.9,3.4,14.5,11.4,14.5,22.9c0,8.4-4,17.5-11.8,21.5v0.2c0,0,1.1,1.4,3,4.7
		l15.3,27.5H807.6z M864.1,612.2c-18.5,0-28.7-11.2-28.7-11.2l10.1-14.6c0,0,8.9,8.1,18.8,8.1c4,0,8.2-1.5,8.2-6.3
		c0-9.4-35.4-9-35.4-33.2c0-14.5,12.2-24.1,27.8-24.1c16.9,0,25.3,8.9,25.3,8.9l-8.1,15.7c0,0-7.9-6.9-17.4-6.9
		c-4,0-8.4,1.8-8.4,6.2c0,9.9,35.4,8.1,35.4,33C891.8,600.9,881.8,612.2,864.1,612.2z M956.4,610.9h-50.8v-78.7h49.3v16.5h-30V563
		h24v16.5h-24v14.9h31.6V610.9z M963.5,510.9h-16.1v-2.2c0-1.6,0.1-3.3,0.1-3.3h-0.2c0,0-7.6,6.8-20.7,6.8
		c-20.1,0-38.6-15.1-38.6-40.8c0-22.9,17.3-40.5,41.2-40.5c20.1,0,30.2,10.4,30.2,10.4l-9.2,14.4c0,0-8-7.3-19.1-7.3
		c-16.5,0-23.2,10.6-23.2,22.2c0,15,10.3,23.9,22.5,23.9c9.2,0,16-5.7,16-5.7v-6.1h-11.1v-16.4h28.2V510.9z M1022.2,610.9h-51.4
		v-78.7h19.2v62.2h32.1V610.9z M1081.5,548.7h-28.9v16.5h24v16.5h-24v29.2h-19.2v-78.7h48.2V548.7z M1127.3,448.7h-23.9v62.2h-19.2
		v-62.2h-23.9v-16.5h67V448.7z"/>
	<path fill="#231F20" d="M993.1,471.1c0,13.4,9.5,23.5,21.2,23.5s21.2-10.1,21.2-23.5c0-12.9-9.5-22.5-21.2-22.5
		S993.1,458.2,993.1,471.1z"/>
	<path fill="#231F20" d="M791.1,548.7h-6.5v19.1h8.4c6.2,0,10-3.4,10-9.7C802.9,552.2,800.7,548.7,791.1,548.7z"/>
</g>
</svg>
